# xmcd
#
# Track frame offsets: 
#        150
#        16968
#        30575
#
# Disc length: 534 seconds
#
# Revision: 0
# Processed by: cddbd v1.4PL0 Copyright (c) Steve Scherf et al.
# Submitted via: ExactAudioCopy v0.90b4
#
DISCID=17021403
DTITLE=Billy Currington - Walk A Little Straighter
DYEAR=2003
DGENRE=Country
TTITLE0=Walk A Little Straighter
TTITLE1=Growin' Up Down There
TTITLE2=Talks About Walk A Little Straighter
EXTD=
EXTT0=
EXTT1=
EXTT2=
PLAYORDER=
